<svg data-v-fde0c5aa="" xmlns="http://www.w3.org/2000/svg" viewBox="0 0 300 300" class="iconAboveSlogan"><!----><defs data-v-fde0c5aa=""><linearGradient data-v-fde0c5aa="" gradientTransform="rotate(25)" id="fa252284-61d8-4ba7-bad3-7a1d376afde4" x1="0%" y1="0%" x2="100%" y2="0%"><stop data-v-fde0c5aa="" offset="0%" stop-color="#D6413F" stop-opacity="1"></stop><stop data-v-fde0c5aa="" offset="100%" stop-color="#4285D3" stop-opacity="1"></stop></linearGradient></defs><rect data-v-fde0c5aa="" fill="url(#fa252284-61d8-4ba7-bad3-7a1d376afde4)" x="0" y="0" width="300px" height="300px" class="logo-background-square"></rect><defs data-v-fde0c5aa=""><!----></defs><g data-v-fde0c5aa="" id="94c5af38-8539-4ab8-b610-16a333d08cd2" fill="#ffffff" transform="matrix(2.654834344345415,0,0,2.654834344345415,17.132778794173824,147.93435162392186)"><path d="M7.64 15.27L7.76 14.08L7.76 14.08Q6.40 15.43 4.72 15.44L4.72 15.44L4.72 15.44Q3.74 15.44 2.90 14.95L2.90 14.95L2.90 14.95Q2.06 14.46 1.60 13.58L1.60 13.58L1.60 13.58Q1.08 12.60 1.08 11.33L1.08 11.33L1.08 11.33Q1.08 10.50 1.30 9.53L1.30 9.53L1.30 9.53Q1.92 6.82 3.64 5.36L3.64 5.36L3.64 5.36Q4.89 4.31 6.22 4.31L6.22 4.31L6.22 4.31Q7.15 4.31 7.81 4.79L7.81 4.79L7.81 4.79Q9.02 5.66 9.02 7.04L9.02 7.04L9.02 7.04Q9.02 7.17 9.00 7.32L9.00 7.32L9.00 7.32Q8.99 7.48 8.82 7.70L8.82 7.70L8.82 7.70Q8.65 7.92 8.47 8.04L8.47 8.04L8.47 8.04Q8.29 8.16 8.17 8.19L8.17 8.19L8.17 8.19Q8.05 8.22 7.99 8.18L7.99 8.18L7.99 8.18Q7.92 8.13 7.94 8.03L7.94 8.03L7.94 8.03Q7.95 7.92 7.95 7.83L7.95 7.83L7.95 7.83Q7.95 7.31 7.71 6.77L7.71 6.77L7.71 6.77Q7.46 6.23 6.93 5.85L6.93 5.85L6.93 5.85Q6.26 5.38 5.45 5.38L5.45 5.38L5.45 5.38Q4.49 5.38 3.84 5.94L3.84 5.94L3.84 5.94Q3.54 6.19 3.23 6.66L3.23 6.66L3.23 6.66Q2.66 7.57 2.40 8.68L2.40 8.68L2.40 8.68Q2.14 9.79 2.14 10.56L2.14 10.56L2.14 10.56Q2.14 11.73 2.60 12.60L2.60 12.60L2.60 12.60Q3.54 14.38 5.49 14.38L5.49 14.38L5.49 14.38Q6.44 14.38 7.11 13.89L7.11 13.89L7.11 13.89Q7.59 13.55 7.83 12.92L7.83 12.92L7.83 12.92Q7.84 12.88 7.88 12.84L7.88 12.84L8.08 10.72L4.76 10.68L4.76 10.68Q4.55 10.68 4.65 10.42L4.65 10.42L4.65 10.42Q4.76 10.07 5.08 9.84L5.08 9.84L5.08 9.84Q5.39 9.62 5.54 9.62L5.54 9.62L9.02 9.66L9.02 9.66Q9.17 9.66 9.16 9.83L9.16 9.83L8.71 14.55L8.71 14.55Q8.69 14.70 8.53 14.93L8.53 14.93L8.53 14.93Q8.36 15.16 8.18 15.28L8.18 15.28L8.18 15.28Q7.99 15.40 7.88 15.43L7.88 15.43L7.88 15.43Q7.63 15.50 7.64 15.27L7.64 15.27ZM10.43 8.22L10.43 8.22Q10.44 8.06 10.61 7.84L10.61 7.84L10.61 7.84Q10.78 7.62 10.96 7.50L10.96 7.50L10.96 7.50Q11.14 7.38 11.27 7.35L11.27 7.35L11.27 7.35Q11.52 7.29 11.49 7.50L11.49 7.50L11.42 8.12L11.42 8.12Q12.50 7.21 13.65 7.34L13.65 7.34L13.65 7.34Q13.85 7.36 13.75 7.63L13.75 7.63L13.75 7.63Q13.61 7.99 13.29 8.20L13.29 8.20L13.29 8.20Q12.96 8.41 12.84 8.40L12.84 8.40L12.84 8.40Q12.12 8.32 11.62 8.69L11.62 8.69L11.62 8.69Q11.38 8.88 11.28 9.55L11.28 9.55L10.75 14.56L10.75 14.56Q10.74 14.73 10.57 14.95L10.57 14.95L10.57 14.95Q10.40 15.16 10.22 15.28L10.22 15.28L10.22 15.28Q10.04 15.40 9.91 15.43L9.91 15.43L9.91 15.43Q9.66 15.48 9.69 15.26L9.69 15.26L10.21 10.36L10.21 10.36Q10.21 10.33 10.22 10.25L10.22 10.25L10.43 8.22ZM20.22 13.96L20.22 13.96L20.22 13.96Q20.40 13.93 20.43 14.06L20.43 14.06L20.43 14.06Q20.45 14.20 20.31 14.42L20.31 14.42L20.31 14.42Q20.16 14.64 19.81 14.92L19.81 14.92L19.81 14.92Q19.46 15.20 19.07 15.36L19.07 15.36L19.07 15.36Q18.30 15.67 18.12 15.08L18.12 15.08L18.12 15.08Q18.03 14.84 18.05 14.20L18.05 14.20L18.05 14.20Q17.32 15.08 16.58 15.34L16.58 15.34L16.58 15.34Q15.83 15.61 15.19 15.43L15.19 15.43L15.19 15.43Q13.19 14.87 13.99 10.81L13.99 10.81L13.99 10.81Q14.25 9.46 14.92 8.60L14.92 8.60L14.92 8.60Q16.07 7.11 17.74 7.34L17.74 7.34L17.74 7.34Q18.44 7.42 18.83 7.85L18.83 7.85L18.83 7.85Q19.15 7.42 19.50 7.34L19.50 7.34L19.50 7.34Q19.61 7.31 19.68 7.36L19.68 7.36L19.68 7.36Q19.74 7.41 19.73 7.52L19.73 7.52L19.73 7.52Q18.91 13.44 19.15 14.18L19.15 14.18L19.15 14.18Q19.26 14.52 19.52 14.39L19.52 14.39L19.52 14.39Q19.63 14.34 19.84 14.16L19.84 14.16L19.84 14.16Q20.05 13.99 20.22 13.96ZM18.12 12.80L18.12 12.80L18.12 12.80Q18.21 11.68 18.26 11.37L18.26 11.37L18.26 11.37Q18.62 8.62 16.90 8.40L16.90 8.40L16.90 8.40Q16.48 8.34 16.17 8.41L16.17 8.41L16.17 8.41Q15.75 8.50 15.60 8.68L15.60 8.68L15.60 8.68Q15.25 9.13 15.02 10.28L15.02 10.28L15.02 10.28Q14.80 11.42 14.83 12.31L14.83 12.31L14.83 12.31Q14.91 14.04 16.06 14.36L16.06 14.36L16.06 14.36Q16.94 14.62 17.42 14.04L17.42 14.04L17.42 14.04Q17.77 13.62 18.12 12.80ZM22.04 8.22L22.04 8.22Q22.05 8.06 22.22 7.84L22.22 7.84L22.22 7.84Q22.39 7.62 22.57 7.50L22.57 7.50L22.57 7.50Q22.75 7.38 22.88 7.35L22.88 7.35L22.88 7.35Q23.13 7.29 23.10 7.50L23.10 7.50L23.00 8.43L23.00 8.43Q23.39 7.98 23.95 7.66L23.95 7.66L23.95 7.66Q24.51 7.34 25.10 7.34L25.10 7.34L25.10 7.34Q27.50 7.31 27.15 10.63L27.15 10.63L26.81 14.55L26.81 14.55Q26.80 14.70 26.63 14.92L26.63 14.92L26.63 14.92Q26.46 15.15 26.28 15.27L26.28 15.27L26.28 15.27Q26.10 15.40 25.98 15.43L25.98 15.43L25.98 15.43Q25.73 15.50 25.75 15.27L25.75 15.27L26.08 11.35L26.08 11.35Q26.40 8.39 24.35 8.40L24.35 8.40L24.35 8.40Q23.94 8.40 23.74 8.51L23.74 8.51L23.74 8.51Q23.25 8.79 22.83 10.05L22.83 10.05L22.83 10.05Q22.83 10.07 22.83 10.09L22.83 10.09L22.36 14.56L22.36 14.56Q22.34 14.73 22.18 14.95L22.18 14.95L22.18 14.95Q22.01 15.16 21.83 15.28L21.83 15.28L21.83 15.28Q21.64 15.40 21.52 15.43L21.52 15.43L21.52 15.43Q21.27 15.48 21.29 15.26L21.29 15.26L22.04 8.22ZM33.56 4.07L33.56 4.07Q33.57 3.91 33.74 3.69L33.74 3.69L33.74 3.69Q33.91 3.47 34.09 3.35L34.09 3.35L34.09 3.35Q34.27 3.22 34.38 3.19L34.38 3.19L34.38 3.19Q34.64 3.12 34.62 3.35L34.62 3.35L33.67 14.55L33.67 14.55Q33.66 14.70 33.49 14.92L33.49 14.92L33.49 14.92Q33.32 15.15 33.14 15.27L33.14 15.27L33.14 15.27Q32.96 15.40 32.84 15.43L32.84 15.43L32.84 15.43Q32.59 15.50 32.61 15.27L32.61 15.27L32.70 14.17L32.70 14.17Q31.99 15.05 31.23 15.33L31.23 15.33L31.23 15.33Q30.48 15.61 29.83 15.43L29.83 15.43L29.83 15.43Q27.85 14.85 28.63 10.81L28.63 10.81L28.63 10.81Q28.90 9.46 29.57 8.60L29.57 8.60L29.57 8.60Q30.73 7.11 32.38 7.34L32.38 7.34L32.38 7.34Q32.90 7.41 33.25 7.64L33.25 7.64L33.56 4.07ZM32.83 12.66L33.05 10.05L33.05 10.05Q32.87 8.55 31.54 8.40L31.54 8.40L31.54 8.40Q31.14 8.36 30.83 8.41L30.83 8.41L30.83 8.41Q30.38 8.50 30.24 8.68L30.24 8.68L30.24 8.68Q29.89 9.14 29.69 10.16L29.69 10.16L29.69 10.16Q28.97 13.89 30.70 14.36L30.70 14.36L30.70 14.36Q31.58 14.62 32.06 14.04L32.06 14.04L32.06 14.04Q32.42 13.61 32.79 12.74L32.79 12.74L32.79 12.74Q32.80 12.70 32.83 12.66L32.83 12.66ZM40.43 15.44L35.35 15.44L35.35 15.44Q35.20 15.44 35.21 15.27L35.21 15.27L36.06 5.19L36.06 5.19Q36.08 5.04 36.25 4.82L36.25 4.82L36.25 4.82Q36.41 4.59 36.60 4.47L36.60 4.47L36.60 4.47Q36.78 4.34 36.89 4.31L36.89 4.31L36.89 4.31Q37.14 4.24 37.13 4.47L37.13 4.47L36.29 14.38L41.22 14.38L41.22 14.38Q41.43 14.38 41.33 14.64L41.33 14.64L41.33 14.64Q41.22 14.99 40.90 15.22L40.90 15.22L40.90 15.22Q40.59 15.44 40.43 15.44L40.43 15.44ZM43.51 8.22L43.51 8.22Q43.53 8.06 43.69 7.84L43.69 7.84L43.69 7.84Q43.86 7.62 44.04 7.50L44.04 7.50L44.04 7.50Q44.23 7.38 44.35 7.35L44.35 7.35L44.35 7.35Q44.60 7.29 44.58 7.50L44.58 7.50L43.83 14.56L43.83 14.56Q43.82 14.73 43.65 14.95L43.65 14.95L43.65 14.95Q43.48 15.16 43.30 15.28L43.30 15.28L43.30 15.28Q43.12 15.40 42.99 15.43L42.99 15.43L42.99 15.43Q42.74 15.48 42.77 15.26L42.77 15.26L43.51 8.22ZM43.58 5.81L43.58 5.81Q43.60 5.66 43.76 5.43L43.76 5.43L43.76 5.43Q43.92 5.21 44.10 5.08L44.10 5.08L44.10 5.08Q44.28 4.96 44.41 4.93L44.41 4.93L44.41 4.93Q44.66 4.86 44.65 5.08L44.65 5.08L44.58 6.06L44.58 6.06Q44.56 6.22 44.40 6.44L44.40 6.44L44.40 6.44Q44.24 6.66 44.06 6.79L44.06 6.79L44.06 6.79Q43.88 6.92 43.75 6.94L43.75 6.94L43.75 6.94Q43.50 7.01 43.51 6.79L43.51 6.79L43.58 5.81ZM46.17 8.22L46.17 8.22Q46.19 8.06 46.35 7.84L46.35 7.84L46.35 7.84Q46.52 7.62 46.70 7.50L46.70 7.50L46.70 7.50Q46.89 7.38 47.01 7.35L47.01 7.35L47.01 7.35Q47.26 7.29 47.24 7.50L47.24 7.50L47.14 8.43L47.14 8.43Q47.53 7.98 48.09 7.66L48.09 7.66L48.09 7.66Q48.65 7.34 49.24 7.34L49.24 7.34L49.24 7.34Q51.63 7.31 51.28 10.63L51.28 10.63L50.95 14.55L50.95 14.55Q50.93 14.70 50.76 14.92L50.76 14.92L50.76 14.92Q50.60 15.15 50.41 15.27L50.41 15.27L50.41 15.27Q50.23 15.40 50.12 15.43L50.12 15.43L50.12 15.43Q49.87 15.50 49.88 15.27L49.88 15.27L50.22 11.35L50.22 11.35Q50.54 8.39 48.48 8.40L48.48 8.40L48.48 8.40Q48.08 8.40 47.88 8.51L47.88 8.51L47.88 8.51Q47.39 8.79 46.97 10.05L46.97 10.05L46.97 10.05Q46.97 10.07 46.97 10.09L46.97 10.09L46.49 14.56L46.49 14.56Q46.48 14.73 46.31 14.95L46.31 14.95L46.31 14.95Q46.14 15.16 45.96 15.28L45.96 15.28L45.96 15.28Q45.78 15.40 45.65 15.43L45.65 15.43L45.65 15.43Q45.40 15.48 45.43 15.26L45.43 15.26L46.17 8.22ZM57.75 11.73L53.69 11.63L53.69 11.63Q53.63 14.22 55.94 14.38L55.94 14.38L55.94 14.38Q56.43 14.42 56.83 14.35L56.83 14.35L56.83 14.35Q57.33 14.27 57.39 14.15L57.39 14.15L57.39 14.15Q57.50 13.94 57.71 13.75L57.71 13.75L57.71 13.75Q57.93 13.55 58.11 13.49L58.11 13.49L58.11 13.49Q58.30 13.43 58.37 13.54L58.37 13.54L58.37 13.54Q58.46 13.72 58.10 14.20L58.10 14.20L58.10 14.20Q57.74 14.67 57.35 14.95L57.35 14.95L57.35 14.95Q56.97 15.22 56.60 15.32L56.60 15.32L56.60 15.32Q55.79 15.54 55.13 15.44L55.13 15.44L55.13 15.44Q52.37 15.26 52.65 11.96L52.65 11.96L52.65 11.96Q52.74 10.93 52.96 10.18L52.96 10.18L52.96 10.18Q53.19 9.44 53.68 8.78L53.68 8.78L53.68 8.78Q54.80 7.27 56.46 7.34L56.46 7.34L56.46 7.34Q59.11 7.43 58.67 10.85L58.67 10.85L58.67 10.85Q58.55 11.41 58.11 11.65L58.11 11.65L58.11 11.65Q57.95 11.75 57.75 11.73L57.75 11.73ZM53.79 10.58L53.79 10.58L53.79 10.58Q53.89 10.56 53.94 10.56L53.94 10.56L57.67 10.64L57.67 10.64Q57.62 8.47 55.66 8.40L55.66 8.40L55.66 8.40Q54.71 8.36 54.39 8.81L54.39 8.81L54.39 8.81Q53.97 9.37 53.79 10.58ZM59.77 15.27L59.77 15.27L60.75 5.19L60.75 5.19Q60.83 4.66 61.26 4.41L61.26 4.41L61.26 4.41Q61.43 4.31 61.64 4.30L61.64 4.30L61.64 4.30Q68.00 3.92 67.83 9.49L67.83 9.49L67.83 9.49Q67.76 11.59 66.66 13.05L66.66 13.05L66.66 13.05Q65.56 14.52 63.88 15.05L63.88 15.05L63.88 15.05Q62.20 15.58 59.89 15.44L59.89 15.44L59.89 15.44Q59.75 15.44 59.77 15.27ZM61.73 5.33L60.84 14.39L60.84 14.39Q62.89 14.50 64.19 14.08L64.19 14.08L64.19 14.08Q65.49 13.65 65.98 12.98L65.98 12.98L65.98 12.98Q66.70 12.01 66.77 10.25L66.77 10.25L66.77 10.25Q66.84 7.81 65.59 6.59L65.59 6.59L65.59 6.59Q64.34 5.36 61.73 5.33L61.73 5.33ZM74.12 11.73L70.06 11.63L70.06 11.63Q70.00 14.22 72.31 14.38L72.31 14.38L72.31 14.38Q72.80 14.42 73.19 14.35L73.19 14.35L73.19 14.35Q73.70 14.27 73.75 14.15L73.75 14.15L73.75 14.15Q73.86 13.94 74.08 13.75L74.08 13.75L74.08 13.75Q74.30 13.55 74.48 13.49L74.48 13.49L74.48 13.49Q74.66 13.43 74.73 13.54L74.73 13.54L74.73 13.54Q74.83 13.72 74.47 14.20L74.47 14.20L74.47 14.20Q74.10 14.67 73.72 14.95L73.72 14.95L73.72 14.95Q73.33 15.22 72.97 15.32L72.97 15.32L72.97 15.32Q72.16 15.54 71.50 15.44L71.50 15.44L71.50 15.44Q68.74 15.26 69.02 11.96L69.02 11.96L69.02 11.96Q69.10 10.93 69.33 10.18L69.33 10.18L69.33 10.18Q69.55 9.44 70.04 8.78L70.04 8.78L70.04 8.78Q71.16 7.27 72.83 7.34L72.83 7.34L72.83 7.34Q75.47 7.43 75.04 10.85L75.04 10.85L75.04 10.85Q74.91 11.41 74.48 11.65L74.48 11.65L74.48 11.65Q74.31 11.75 74.12 11.73L74.12 11.73ZM70.15 10.58L70.15 10.58L70.15 10.58Q70.25 10.56 70.31 10.56L70.31 10.56L74.03 10.64L74.03 10.64Q73.99 8.47 72.03 8.40L72.03 8.40L72.03 8.40Q71.08 8.36 70.76 8.81L70.76 8.81L70.76 8.81Q70.34 9.37 70.15 10.58ZM81.93 9.47L81.93 9.47L81.93 9.47Q81.82 9.69 81.60 9.88L81.60 9.88L81.60 9.88Q81.38 10.07 81.20 10.11L81.20 10.11L81.20 10.11Q81.02 10.15 80.98 10.04L80.98 10.04L80.98 10.04Q80.74 9.39 80.21 8.94L80.21 8.94L80.21 8.94Q79.69 8.48 79.11 8.40L79.11 8.40L79.11 8.40Q78.54 8.32 78.22 8.50L78.22 8.50L78.22 8.50Q77.94 9.09 78.37 9.74L78.37 9.74L78.37 9.74Q78.75 10.32 79.88 10.77L79.88 10.77L79.88 10.77Q80.65 11.07 80.91 11.21L80.91 11.21L80.91 11.21Q82.03 11.90 82.00 12.98L82.00 12.98L82.00 12.98Q81.97 13.83 81.19 14.62L81.19 14.62L81.19 14.62Q79.76 16.03 77.95 15.15L77.95 15.15L77.95 15.15Q76.93 14.64 76.27 13.59L76.27 13.59L76.27 13.59Q76.22 13.50 76.32 13.29L76.32 13.29L76.32 13.29Q76.43 13.08 76.64 12.88L76.64 12.88L76.64 12.88Q76.85 12.68 77.04 12.61L77.04 12.61L77.04 12.61Q77.24 12.54 77.29 12.64L77.29 12.64L77.29 12.64Q78.05 13.83 79.23 14.25L79.23 14.25L79.23 14.25Q79.98 14.52 80.58 14.32L80.58 14.32L80.58 14.32Q80.78 14.25 80.82 14.20L80.82 14.20L80.82 14.20Q81.00 13.89 80.89 13.40L80.89 13.40L80.89 13.40Q80.70 12.50 79.34 11.96L79.34 11.96L79.34 11.96Q79.28 11.93 79.02 11.83L79.02 11.83L79.02 11.83Q78.26 11.54 78.01 11.34L78.01 11.34L78.01 11.34Q76.73 10.42 77.17 9.13L77.17 9.13L77.17 9.13Q77.34 8.61 77.73 8.20L77.73 8.20L77.73 8.20Q78.72 7.17 79.88 7.34L79.88 7.34L79.88 7.34Q80.61 7.43 81.19 7.93L81.19 7.93L81.19 7.93Q81.76 8.43 82.01 9.14L82.01 9.14L82.01 9.14Q82.05 9.25 81.93 9.47ZM84.08 8.22L84.08 8.22Q84.10 8.06 84.27 7.84L84.27 7.84L84.27 7.84Q84.43 7.62 84.62 7.50L84.62 7.50L84.62 7.50Q84.80 7.38 84.92 7.35L84.92 7.35L84.92 7.35Q85.18 7.29 85.15 7.50L85.15 7.50L84.41 14.56L84.41 14.56Q84.39 14.73 84.22 14.95L84.22 14.95L84.22 14.95Q84.06 15.16 83.87 15.28L83.87 15.28L83.87 15.28Q83.69 15.40 83.57 15.43L83.57 15.43L83.57 15.43Q83.31 15.48 83.34 15.26L83.34 15.26L84.08 8.22ZM84.15 5.81L84.15 5.81Q84.17 5.66 84.33 5.43L84.33 5.43L84.33 5.43Q84.49 5.21 84.67 5.08L84.67 5.08L84.67 5.08Q84.85 4.96 84.98 4.93L84.98 4.93L84.98 4.93Q85.23 4.86 85.22 5.08L85.22 5.08L85.15 6.06L85.15 6.06Q85.13 6.22 84.97 6.44L84.97 6.44L84.97 6.44Q84.81 6.66 84.63 6.79L84.63 6.79L84.63 6.79Q84.45 6.92 84.32 6.94L84.32 6.94L84.32 6.94Q84.07 7.01 84.08 6.79L84.08 6.79L84.15 5.81ZM91.64 7.78L91.64 7.78L91.64 7.78Q91.92 7.43 92.13 7.38L92.13 7.38L92.13 7.38Q92.48 7.28 92.47 7.49L92.47 7.49L92.47 7.49Q92.19 12.04 92.05 13.02L92.05 13.02L92.05 13.02Q91.94 14.18 91.69 15.02L91.69 15.02L91.69 15.02Q91.43 15.86 90.87 16.64L90.87 16.64L90.87 16.64Q90.30 17.42 89.54 17.79L89.54 17.79L89.54 17.79Q88.79 18.17 88.02 18.16L88.02 18.16L88.02 18.16Q86.44 18.14 85.85 17.18L85.85 17.18L85.85 17.18Q85.79 17.08 85.90 16.86L85.90 16.86L85.90 16.86Q86.00 16.65 86.21 16.46L86.21 16.46L86.21 16.46Q86.42 16.27 86.62 16.20L86.62 16.20L86.62 16.20Q86.81 16.13 86.88 16.23L86.88 16.23L86.88 16.23Q87.39 17.08 88.80 17.09L88.80 17.09L88.80 17.09Q89.81 17.11 90.19 16.56L90.19 16.56L90.19 16.56Q90.72 15.82 90.94 14.17L90.94 14.17L90.94 14.17Q90.22 15.06 89.47 15.34L89.47 15.34L89.47 15.34Q88.72 15.61 88.07 15.43L88.07 15.43L88.07 15.43Q86.07 14.87 86.87 10.81L86.87 10.81L86.87 10.81Q87.14 9.46 87.81 8.60L87.81 8.60L87.81 8.60Q88.96 7.11 90.62 7.34L90.62 7.34L90.62 7.34Q91.25 7.42 91.64 7.78ZM91.10 12.60L91.10 12.60L91.10 12.60Q91.20 11.52 91.18 11.52L91.18 11.52L91.18 11.52Q91.13 11.48 91.14 11.37L91.14 11.37L91.14 11.37Q91.50 8.62 89.78 8.40L89.78 8.40L89.78 8.40Q89.36 8.34 89.05 8.41L89.05 8.41L89.05 8.41Q88.62 8.50 88.48 8.68L88.48 8.68L88.48 8.68Q88.13 9.13 87.91 10.28L87.91 10.28L87.91 10.28Q87.68 11.42 87.71 12.31L87.71 12.31L87.71 12.31Q87.79 14.04 88.94 14.36L88.94 14.36L88.94 14.36Q89.82 14.62 90.30 14.04L90.30 14.04L90.30 14.04Q90.66 13.61 91.03 12.74L91.03 12.74L91.03 12.74Q91.06 12.67 91.10 12.60ZM93.86 8.22L93.86 8.22Q93.87 8.06 94.04 7.84L94.04 7.84L94.04 7.84Q94.21 7.62 94.39 7.50L94.39 7.50L94.39 7.50Q94.57 7.38 94.70 7.35L94.70 7.35L94.70 7.35Q94.95 7.29 94.92 7.50L94.92 7.50L94.82 8.43L94.82 8.43Q95.21 7.98 95.77 7.66L95.77 7.66L95.77 7.66Q96.33 7.34 96.92 7.34L96.92 7.34L96.92 7.34Q99.32 7.31 98.97 10.63L98.97 10.63L98.63 14.55L98.63 14.55Q98.62 14.70 98.45 14.92L98.45 14.92L98.45 14.92Q98.28 15.15 98.10 15.27L98.10 15.27L98.10 15.27Q97.92 15.40 97.80 15.43L97.80 15.43L97.80 15.43Q97.55 15.50 97.57 15.27L97.57 15.27L97.90 11.35L97.90 11.35Q98.22 8.39 96.17 8.40L96.17 8.40L96.17 8.40Q95.76 8.40 95.56 8.51L95.56 8.51L95.56 8.51Q95.07 8.79 94.65 10.05L94.65 10.05L94.65 10.05Q94.65 10.07 94.65 10.09L94.65 10.09L94.18 14.56L94.18 14.56Q94.16 14.73 94.00 14.95L94.00 14.95L94.00 14.95Q93.83 15.16 93.65 15.28L93.65 15.28L93.65 15.28Q93.46 15.40 93.34 15.43L93.34 15.43L93.34 15.43Q93.09 15.48 93.11 15.26L93.11 15.26L93.86 8.22Z"></path></g><defs data-v-fde0c5aa=""><!----></defs><g data-v-fde0c5aa="" id="befd1cca-29b1-4aec-8797-7600047b2e9f" stroke="none" fill="#ffffff" transform="matrix(0.8488866737646721,0,0,0.8488866737646721,124.53340108046069,87.42669440095224)"><g fill-rule="evenodd"><path d="M5 6a1 1 0 1 0 0-2 1 1 0 0 0 0 2M8 55a1 1 0 1 0 0 2 1 1 0 0 0 0-2M3 48a1 1 0 1 0 0 2 1 1 0 0 0 0-2M14 3a1 1 0 1 0 0-2 1 1 0 0 0 0 2M54 6a1 1 0 1 0 0-2 1 1 0 0 0 0 2M42.618 30a1 1 0 0 1 1-1h16.357a29.828 29.828 0 0 0-1.695-9H32.263a1 1 0 1 1 0-2h25.224a29.825 29.825 0 0 0-2.129-4H43a1 1 0 0 1 0-2h10.984C48.505 4.718 39.794 0 30 0 17.723 0 7.151 7.416 2.513 18h23.148a1 1 0 0 1 0 2H1.72a29.828 29.828 0 0 0-1.695 9h9.712a1 1 0 1 1 0 2H.025a29.8 29.8 0 0 0 2.073 10h21.845a1 1 0 0 1 0 2H2.966a30.162 30.162 0 0 0 6.666 9h24.174a1 1 0 0 1 0 2H12.021A29.84 29.84 0 0 0 30 60a29.84 29.84 0 0 0 17.979-6h-7.776a1 1 0 0 1 0-2h10.165a30.162 30.162 0 0 0 6.666-9h-26.86a1 1 0 0 1 0-2h27.728a29.8 29.8 0 0 0 2.073-10H43.618a1 1 0 0 1-1-1zM34.567 6H42.9a1 1 0 1 1 0 2h-8.333a1 1 0 0 1 0-2zM16.206 7a1 1 0 0 1 1-1h10.417a1 1 0 0 1 0 2H17.206a1 1 0 0 1-1-1zM24 14a1 1 0 0 1 0-2h10a1 1 0 0 1 0 2H24zm1 9h10a1 1 0 0 1 0 2H25a1 1 0 0 1 0-2zM6 25a1 1 0 0 1 0-2h10a1 1 0 0 1 0 2H6zm9.349 5a1 1 0 0 1 1-1h20.277a1 1 0 0 1 0 2H16.349a1 1 0 0 1-1-1zm21.928 16a1 1 0 0 1 0 2H17a1 1 0 0 1 0-2h20.277zM44 36a1 1 0 0 1-1 1H22.723a1 1 0 0 1 0-2H43a1 1 0 0 1 1 1z"></path></g></g><defs data-v-fde0c5aa=""><!----></defs><g data-v-fde0c5aa="" id="c4ba6ab4-89e0-44e6-b884-ea9344052594" fill="#ffffff" transform="matrix(0.5481486463393962,0,0,0.5481486463393962,53.00707612294511,205.93444236394635)"><path d="M4.55 3.48L4.55 3.48Q4.50 1.70 3.66 1.01L3.66 1.01L3.66 1.01Q3.19 0.64 2.30 0.68L2.30 0.68L2.30 0.68Q1.30 0.72 0.05 1.40L0.05 1.40L0.05 1.40Q-0.14 1.50-0.10 1.60L-0.10 1.60L-0.10 1.60Q-0.07 1.70 0.13 1.71L0.13 1.71L0.13 1.71Q0.63 1.72 1.16 1.44L1.16 1.44L1.16 1.44Q1.18 1.43 1.20 1.42L1.20 1.42L1.20 1.42Q1.24 1.39 1.32 1.35L1.32 1.35L1.32 1.35Q1.36 1.34 1.44 1.31L1.44 1.31L1.44 1.31Q1.46 1.29 1.57 1.26L1.57 1.26L1.58 1.26L1.58 1.26Q1.59 1.25 1.59 1.26L1.59 1.26L1.59 1.26Q1.59 1.25 1.61 1.25L1.61 1.25L1.61 1.25Q1.65 1.25 1.69 1.26L1.69 1.26L1.69 1.26Q1.70 1.26 1.72 1.26L1.72 1.26L1.72 1.26Q1.76 1.26 1.76 1.26L1.76 1.26L1.76 1.26Q1.85 1.28 1.95 1.31L1.95 1.31L1.95 1.31Q1.96 1.31 1.96 1.31L1.96 1.31L1.96 1.31Q1.96 1.31 1.96 1.31L1.96 1.31L1.96 1.31Q1.99 1.33 2.04 1.35L2.04 1.35L2.04 1.35Q2.09 1.37 2.17 1.43L2.17 1.43L2.17 1.43Q2.30 1.51 2.43 1.65L2.43 1.65L2.43 1.65Q2.63 1.85 2.79 2.23L2.79 2.23L2.79 2.23Q3.38 3.66 2.85 6.11L2.85 6.11L2.85 6.11Q2.50 7.70 1.79 8.97L1.79 8.97L1.79 8.97Q1.44 9.60 1.03 10.03L1.03 10.03L1.03 10.03Q0.85 10.22 0.64 10.39L0.64 10.39L0.64 10.39Q1.73 5.68 2.19 1.78L2.19 1.78L2.19 1.78Q2.20 1.71 1.98 1.70L1.98 1.70L1.98 1.70Q1.76 1.69 1.49 1.74L1.49 1.74L1.49 1.74Q0.77 1.87 0.73 2.17L0.73 2.17L0.73 2.17Q0.26 6.19-0.92 11.16L-0.92 11.16L-0.92 11.16Q-0.98 11.42-0.33 11.30L-0.33 11.30L-0.33 11.30Q-0.03 11.25 0.22 11.12L0.22 11.12L0.22 11.12Q0.42 11.03 0.48 10.97L0.48 10.97L0.48 10.97Q0.75 10.93 1.13 10.77L1.13 10.77L1.13 10.77Q2.69 10.12 3.68 7.78L3.68 7.78L3.68 7.78Q4.59 5.63 4.55 3.48L4.55 3.48ZM14.31 5.20L14.31 5.20Q14.19 6.64 13.92 7.92L13.92 7.92L13.92 7.92Q13.51 9.88 12.74 10.64L12.74 10.64L12.74 10.64Q12.65 10.55 12.58 10.38L12.58 10.38L12.58 10.38Q12.39 9.97 12.41 9.03L12.41 9.03L12.41 9.03Q12.43 7.34 13.01 5.48L13.01 5.48L13.01 5.48Q13.51 3.85 14.21 3.01L14.21 3.01L14.21 3.01Q14.28 3.25 14.33 3.62L14.33 3.62L14.33 3.62Q14.40 4.21 14.31 5.20L14.31 5.20ZM15.24 1.96L15.24 1.96Q15.04 1.79 14.30 2.05L14.30 2.05L14.30 2.05Q13.80 2.24 13.82 2.39L13.82 2.39L13.82 2.39Q13.57 2.48 13.39 2.63L13.39 2.63L13.39 2.63Q12.41 3.40 11.74 5.22L11.74 5.22L11.74 5.22Q11.20 6.70 11.01 8.50L11.01 8.50L11.01 8.50Q10.92 9.28 10.95 9.92L10.95 9.92L10.95 9.92Q10.99 10.77 11.35 11.13L11.35 11.13L11.35 11.13Q11.54 11.31 11.97 11.33L11.97 11.33L11.97 11.33Q12.51 11.36 13.34 11.02L13.34 11.02L13.34 11.02Q14.02 10.74 14.54 9.94L14.54 9.94L14.54 9.94Q15.01 9.21 15.33 7.85L15.33 7.85L15.33 7.85Q15.54 6.94 15.66 5.84L15.66 5.84L15.66 5.84Q15.83 4.44 15.83 3.78L15.83 3.78L15.83 3.78Q15.81 2.45 15.24 1.96L15.24 1.96ZM28.59 0.74L28.59 0.74Q28.29 0.79 28.03 0.91L28.03 0.91L28.03 0.91Q27.76 1.04 27.73 1.13L27.73 1.13L27.73 1.13Q26.85 3.96 26.23 7.39L26.23 7.39L26.23 7.39Q26.15 6.88 26.03 6.21L26.03 6.21L26.03 6.21Q25.74 4.44 25.69 4.05L25.69 4.05L25.69 4.05Q25.54 2.77 25.35 2.37L25.35 2.37L25.35 2.37Q25.35 2.37 25.33 2.35L25.33 2.35L25.34 2.34L25.34 2.34Q25.34 2.34 25.34 2.33L25.34 2.33L25.34 2.33Q25.38 2.08 24.75 2.20L24.75 2.20L24.75 2.20Q24.45 2.26 24.20 2.37L24.20 2.37L24.20 2.37Q23.91 2.51 23.90 2.60L23.90 2.60L23.90 2.60Q23.71 3.71 23.07 6.73L23.07 6.73L23.07 6.73Q22.52 9.34 22.32 10.89L22.32 10.89L22.32 10.89Q22.31 11.01 22.69 10.98L22.69 10.98L22.69 10.98Q22.94 10.96 23.11 10.91L23.11 10.91L23.11 10.91Q23.75 10.74 23.78 10.50L23.78 10.50L23.78 10.50Q23.98 8.97 24.53 6.38L24.53 6.38L24.53 6.38Q24.56 6.54 24.57 6.61L24.57 6.61L24.57 6.61Q24.79 7.90 24.96 8.95L24.96 8.95L24.96 8.95Q25.22 10.45 25.45 11.09L25.45 11.09L25.45 11.09Q25.50 11.24 25.85 11.21L25.85 11.21L25.85 11.21Q26.16 11.18 26.50 11.05L26.50 11.05L26.50 11.05Q27.08 10.89 27.12 10.65L27.12 10.65L27.12 10.65Q27.89 5.00 29.18 0.87L29.18 0.87L29.18 0.87Q29.26 0.62 28.59 0.74L28.59 0.74ZM35.92 0.91L35.92 0.91Q36.25 1.53 36.07 2.22L36.07 2.22L36.07 2.22Q35.90 2.87 35.33 3.34L35.33 3.34L35.33 3.34Q35.16 3.48 35.36 3.53L35.36 3.53L35.36 3.53Q35.51 3.58 35.68 3.57L35.68 3.57L35.68 3.57Q36.30 3.51 36.65 3.22L36.65 3.22L36.65 3.22Q37.28 2.70 37.50 1.98L37.50 1.98L37.50 1.98Q37.74 1.20 37.38 0.51L37.38 0.51L37.38 0.51Q37.24 0.27 36.53 0.50L36.53 0.50L36.53 0.50Q36.26 0.59 36.07 0.70L36.07 0.70L36.07 0.70Q35.88 0.83 35.92 0.91L35.92 0.91ZM55.30 2.35L55.30 2.35Q54.34 2.17 53.33 2.15L53.33 2.15L53.33 2.15Q53.24 2.03 52.76 2.11L52.76 2.11L52.76 2.11Q52.66 2.13 52.55 2.16L52.55 2.16L52.55 2.16Q51.48 2.22 50.44 2.46L50.44 2.46L50.44 2.46Q49.70 2.63 49.77 2.88L49.77 2.88L49.77 2.88Q49.82 3.08 50.54 2.91L50.54 2.91L50.54 2.91Q50.55 2.91 50.57 2.90L50.57 2.90L50.57 2.90Q50.58 2.90 50.59 2.89L50.59 2.89L50.59 2.89Q50.67 2.88 50.83 2.85L50.83 2.85L50.83 2.85Q50.99 2.82 51.21 2.80L51.21 2.80L51.21 2.80Q51.50 2.76 51.83 2.75L51.83 2.75L51.83 2.75Q50.42 7.40 50.02 10.96L50.02 10.96L50.02 10.96Q50.01 11.02 50.24 11.03L50.24 11.03L50.24 11.03Q50.45 11.04 50.73 10.99L50.73 10.99L50.73 10.99Q51.45 10.86 51.48 10.56L51.48 10.56L51.48 10.56Q51.86 7.19 53.18 2.78L53.18 2.78L53.18 2.78Q53.65 2.82 54.09 2.91L54.09 2.91L54.09 2.91Q54.52 2.99 55.11 2.72L55.11 2.72L55.11 2.72Q55.27 2.65 55.36 2.54L55.36 2.54L55.36 2.54Q55.51 2.39 55.30 2.35L55.30 2.35ZM73.47 11.33L73.47 11.33Q72.43 11.36 71.99 11.16L71.99 11.16L71.99 11.16Q72.84 6.57 73.96 2.08L73.96 2.08L73.96 2.08Q74.03 1.83 73.38 1.95L73.38 1.95L73.38 1.95Q73.08 2.00 72.82 2.12L72.82 2.12L72.82 2.12Q72.54 2.25 72.52 2.34L72.52 2.34L72.52 2.34Q71.40 6.83 70.54 11.47L70.54 11.47L70.54 11.47Q70.45 11.56 70.52 11.61L70.52 11.61L70.52 11.61Q70.52 11.63 70.51 11.70L70.51 11.70L70.51 11.70Q70.51 11.74 70.50 11.78L70.50 11.78L70.50 11.78Q70.48 11.94 71.12 11.83L71.12 11.83L71.12 11.83Q71.61 11.95 72.52 11.92L72.52 11.92L72.52 11.92Q73.13 11.91 73.55 11.65L73.55 11.65L73.55 11.65Q73.73 11.54 73.71 11.44L73.71 11.44L73.71 11.44Q73.68 11.33 73.47 11.33L73.47 11.33ZM85.67 1.42L85.67 1.42Q84.96 1.19 83.77 1.57L83.77 1.57L83.77 1.57Q82.26 2.06 81.70 3.77L81.70 3.77L81.70 3.77Q81.35 4.83 81.53 6.11L81.53 6.11L81.53 6.11Q81.62 6.76 81.89 7.16L81.89 7.16L81.89 7.16Q81.47 7.38 81.18 7.70L81.18 7.70L81.18 7.70Q80.18 8.80 80.29 10.01L80.29 10.01L80.29 10.01Q80.36 10.70 80.83 11.11L80.83 11.11L80.83 11.11Q81.23 11.44 82.06 11.42L82.06 11.42L82.06 11.42Q82.89 11.39 83.60 10.95L83.60 10.95L83.60 10.95Q84.35 10.49 84.65 9.76L84.65 9.76L84.65 9.76Q84.71 9.61 84.43 9.60L84.43 9.60L84.43 9.60Q84.26 9.59 84.07 9.63L84.07 9.63L84.07 9.63Q83.32 9.76 83.21 10.02L83.21 10.02L83.21 10.02Q83.02 10.51 82.67 10.80L82.67 10.80L82.67 10.80Q82.65 10.81 82.64 10.82L82.64 10.82L82.64 10.82Q82.59 10.81 82.58 10.81L82.58 10.81L82.58 10.81Q82.52 10.79 82.43 10.75L82.43 10.75L82.43 10.75Q82.27 10.68 82.11 10.52L82.11 10.52L82.11 10.52Q81.83 10.23 81.75 9.63L81.75 9.63L81.75 9.63Q81.66 8.83 82.28 7.86L82.28 7.86L82.28 7.86Q82.37 7.74 82.47 7.62L82.47 7.62L82.47 7.62Q82.68 7.70 82.95 7.72L82.95 7.72L82.95 7.72Q83.36 7.74 83.85 7.51L83.85 7.51L83.85 7.51Q84.27 7.32 84.12 7.18L84.12 7.18L84.12 7.18Q83.83 6.90 83.41 6.84L83.41 6.84L83.41 6.84Q83.36 6.79 83.33 6.75L83.33 6.75L83.33 6.75Q83.13 6.45 83.02 5.89L83.02 5.89L83.02 5.89Q82.82 4.89 83.01 4.00L83.01 4.00L83.01 4.00Q83.28 2.70 84.04 2.04L84.04 2.04L84.04 2.04Q84.10 2.00 84.19 1.93L84.19 1.93L84.19 1.93Q84.20 1.93 84.20 1.93L84.20 1.93L84.20 1.93Q84.33 1.94 84.31 1.93L84.31 1.93L84.31 1.93Q84.89 2.02 84.77 2.62L84.77 2.62L84.77 2.62Q84.72 2.86 85.35 2.75L85.35 2.75L85.35 2.75Q85.66 2.69 85.91 2.58L85.91 2.58L85.91 2.58Q86.19 2.45 86.21 2.36L86.21 2.36L86.21 2.36Q86.35 1.63 85.67 1.42L85.67 1.42ZM96.84 2.35L96.84 2.35Q95.88 2.17 94.88 2.15L94.88 2.15L94.88 2.15Q94.78 2.03 94.30 2.11L94.30 2.11L94.30 2.11Q94.21 2.13 94.09 2.16L94.09 2.16L94.09 2.16Q93.02 2.22 91.98 2.46L91.98 2.46L91.98 2.46Q91.25 2.63 91.31 2.88L91.31 2.88L91.31 2.88Q91.36 3.08 92.09 2.91L92.09 2.91L92.09 2.91Q92.09 2.91 92.11 2.90L92.11 2.90L92.11 2.90Q92.12 2.90 92.13 2.89L92.13 2.89L92.13 2.89Q92.21 2.88 92.37 2.85L92.37 2.85L92.37 2.85Q92.53 2.82 92.76 2.80L92.76 2.80L92.76 2.80Q93.04 2.76 93.37 2.75L93.37 2.75L93.37 2.75Q91.96 7.40 91.56 10.96L91.56 10.96L91.56 10.96Q91.55 11.02 91.78 11.03L91.78 11.03L91.78 11.03Q91.99 11.04 92.27 10.99L92.27 10.99L92.27 10.99Q93.00 10.86 93.02 10.56L93.02 10.56L93.02 10.56Q93.40 7.19 94.72 2.78L94.72 2.78L94.72 2.78Q95.19 2.82 95.63 2.91L95.63 2.91L95.63 2.91Q96.07 2.99 96.65 2.72L96.65 2.72L96.65 2.72Q96.81 2.65 96.91 2.54L96.91 2.54L96.91 2.54Q97.05 2.39 96.84 2.35L96.84 2.35ZM118.44 1.12L118.44 1.12Q118.41 0.90 117.67 1.07L117.67 1.07L117.67 1.07Q116.94 1.25 116.98 1.51L116.98 1.51L116.98 1.51Q117.16 2.73 116.94 4.12L116.94 4.12L116.94 4.12Q116.67 5.76 115.92 6.75L115.92 6.75L115.92 6.75Q115.77 6.95 115.51 7.16L115.51 7.16L115.51 7.16Q115.45 7.23 115.34 7.29L115.34 7.29L115.34 7.29Q115.34 7.29 115.26 7.34L115.26 7.34L115.25 7.34L115.25 7.34Q115.25 7.34 115.25 7.34L115.25 7.34L115.25 7.34Q115.18 7.36 115.11 7.38L115.11 7.38L115.10 7.37L115.10 7.37Q115.10 7.37 115.09 7.37L115.09 7.37L115.09 7.37Q115.06 7.36 114.99 7.35L114.99 7.35L114.99 7.35Q114.98 7.35 114.95 7.33L114.95 7.33L114.95 7.33Q114.95 7.33 114.93 7.33L114.93 7.33L114.93 7.33Q114.33 7.06 114.34 5.83L114.34 5.83L114.34 5.83Q114.34 4.47 115.30 1.59L115.30 1.59L115.30 1.59Q115.38 1.34 114.71 1.46L114.71 1.46L114.71 1.46Q113.94 1.60 113.86 1.85L113.86 1.85L113.86 1.85Q112.99 4.44 112.89 5.87L112.89 5.87L112.89 5.87Q112.79 7.12 113.31 7.65L113.31 7.65L113.31 7.65Q113.58 7.94 114.19 7.96L114.19 7.96L114.19 7.96Q114.33 7.97 114.49 7.96L114.49 7.96L114.49 7.96Q114.43 8.59 113.91 10.68L113.91 10.68L113.91 10.68Q113.85 10.94 114.49 10.82L114.49 10.82L114.49 10.82Q114.80 10.77 115.05 10.65L115.05 10.65L115.05 10.65Q115.33 10.52 115.35 10.42L115.35 10.42L115.35 10.42Q115.89 8.28 115.95 7.59L115.95 7.59L115.95 7.59Q115.99 7.57 116.00 7.57L116.00 7.57L116.00 7.57Q117.58 6.90 118.20 4.67L118.20 4.67L118.20 4.67Q118.71 2.84 118.44 1.12L118.44 1.12ZM128.12 5.20L128.12 5.20Q128.00 6.64 127.73 7.92L127.73 7.92L127.73 7.92Q127.32 9.88 126.55 10.64L126.55 10.64L126.55 10.64Q126.46 10.55 126.38 10.38L126.38 10.38L126.38 10.38Q126.20 9.97 126.21 9.03L126.21 9.03L126.21 9.03Q126.24 7.34 126.81 5.48L126.81 5.48L126.81 5.48Q127.31 3.85 128.01 3.01L128.01 3.01L128.01 3.01Q128.08 3.25 128.13 3.62L128.13 3.62L128.13 3.62Q128.20 4.21 128.12 5.20L128.12 5.20ZM129.05 1.96L129.05 1.96Q128.84 1.79 128.11 2.05L128.11 2.05L128.11 2.05Q127.61 2.24 127.63 2.39L127.63 2.39L127.63 2.39Q127.37 2.48 127.20 2.63L127.20 2.63L127.20 2.63Q126.21 3.40 125.55 5.22L125.55 5.22L125.55 5.22Q125.00 6.70 124.81 8.50L124.81 8.50L124.81 8.50Q124.73 9.28 124.76 9.92L124.76 9.92L124.76 9.92Q124.80 10.77 125.16 11.13L125.16 11.13L125.16 11.13Q125.34 11.31 125.77 11.33L125.77 11.33L125.77 11.33Q126.31 11.36 127.14 11.02L127.14 11.02L127.14 11.02Q127.83 10.74 128.34 9.94L128.34 9.94L128.34 9.94Q128.82 9.21 129.13 7.85L129.13 7.85L129.13 7.85Q129.34 6.94 129.47 5.84L129.47 5.84L129.47 5.84Q129.63 4.44 129.63 3.78L129.63 3.78L129.63 3.78Q129.62 2.45 129.05 1.96L129.05 1.96ZM140.94 2.21L140.94 2.21Q140.31 2.38 140.27 2.63L140.27 2.63L140.27 2.63Q140.22 3.01 140.06 4.51L140.06 4.51L140.06 4.51Q139.94 5.69 139.80 6.41L139.80 6.41L139.80 6.41Q139.40 8.57 138.30 9.83L138.30 9.83L138.30 9.83Q138.15 10.00 138.04 10.12L138.04 10.12L138.04 10.12Q137.78 9.61 137.74 8.40L137.74 8.40L137.74 8.40Q137.68 6.90 138.61 4.58L138.61 4.58L138.61 4.58Q139.29 2.88 139.45 2.40L139.45 2.40L139.45 2.40Q139.54 2.15 138.87 2.26L138.87 2.26L138.87 2.26Q138.10 2.41 138.01 2.66L138.01 2.66L138.01 2.66Q137.85 3.12 137.29 4.53L137.29 4.53L137.29 4.53Q136.83 5.71 136.62 6.43L136.62 6.43L136.62 6.43Q135.95 8.66 136.52 10.36L136.52 10.36L136.52 10.36Q136.62 10.68 136.82 10.83L136.82 10.83L136.82 10.83Q137.05 11.03 137.70 10.92L137.70 10.92L137.70 10.92Q138.71 10.73 139.62 9.71L139.62 9.71L139.62 9.71Q140.79 8.41 141.22 6.34L141.22 6.34L141.22 6.34Q141.37 5.55 141.51 4.29L141.51 4.29L141.51 4.29Q141.69 2.58 141.74 2.24L141.74 2.24L141.74 2.24Q141.75 2.11 141.37 2.14L141.37 2.14L141.37 2.14Q141.11 2.16 140.94 2.21L140.94 2.21ZM152.17 5.31L152.17 5.31Q152.02 6.24 151.13 7.18L151.13 7.18L151.13 7.18Q150.94 7.38 150.70 7.58L150.70 7.58L150.70 7.58Q150.64 7.63 150.58 7.68L150.58 7.68L150.58 7.68Q150.36 7.59 150.10 7.58L150.10 7.58L150.10 7.58Q150.66 4.74 150.81 2.66L150.81 2.66L150.81 2.66Q151.07 2.80 151.31 2.99L151.31 2.99L151.31 2.99Q151.83 3.39 152.06 4.03L152.06 4.03L152.06 4.03Q152.28 4.65 152.17 5.31L152.17 5.31ZM149.20 2.40L149.20 2.40Q149.20 2.40 149.21 2.39L149.21 2.39L149.21 2.39Q149.21 2.40 149.20 2.40L149.20 2.40ZM154.14 11.42L154.14 11.42Q153.41 10.88 151.87 8.99L151.87 8.99L151.87 8.99Q151.20 8.17 151.09 8.05L151.09 8.05L151.09 8.05Q151.55 7.84 151.98 7.50L151.98 7.50L151.98 7.50Q153.18 6.56 153.54 5.41L153.54 5.41L153.54 5.41Q153.78 4.60 153.58 3.84L153.58 3.84L153.58 3.84Q153.36 3.07 152.74 2.53L152.74 2.53L152.74 2.53Q151.50 1.46 149.43 1.88L149.43 1.88L149.43 1.88Q149.30 1.91 149.10 1.96L149.10 1.96L149.10 1.96Q148.36 2.14 148.42 2.37L148.42 2.37L148.42 2.37Q148.48 2.58 149.19 2.40L149.19 2.40L149.19 2.40Q149.26 2.39 149.31 2.38L149.31 2.38L149.31 2.38Q149.35 2.37 149.39 2.37L149.39 2.37L149.39 2.37Q149.27 5.11 148.03 10.79L148.03 10.79L148.03 10.79Q147.98 11.04 148.61 10.92L148.61 10.92L148.61 10.92Q148.92 10.87 149.17 10.75L149.17 10.75L149.17 10.75Q149.45 10.62 149.47 10.53L149.47 10.53L149.47 10.53Q149.77 9.17 149.86 8.72L149.86 8.72L149.86 8.72Q149.87 8.72 149.87 8.72L149.87 8.72L149.87 8.72Q149.88 8.72 149.88 8.72L149.88 8.72L149.88 8.72Q149.99 8.85 150.67 9.70L150.67 9.70L150.67 9.70Q151.99 11.34 152.76 11.92L152.76 11.92L152.76 11.92Q152.98 12.09 153.70 11.83L153.70 11.83L153.70 11.83Q153.88 11.76 154.03 11.67L154.03 11.67L154.03 11.67Q154.27 11.52 154.14 11.42L154.14 11.42ZM175.40 3.48L175.40 3.48Q175.36 1.70 174.51 1.01L174.51 1.01L174.51 1.01Q174.04 0.64 173.15 0.68L173.15 0.68L173.15 0.68Q172.15 0.72 170.90 1.40L170.90 1.40L170.90 1.40Q170.71 1.50 170.75 1.60L170.75 1.60L170.75 1.60Q170.78 1.70 170.98 1.71L170.98 1.71L170.98 1.71Q171.48 1.72 172.01 1.44L172.01 1.44L172.01 1.44Q172.03 1.43 172.05 1.42L172.05 1.42L172.05 1.42Q172.09 1.39 172.17 1.35L172.17 1.35L172.17 1.35Q172.21 1.34 172.29 1.31L172.29 1.31L172.29 1.31Q172.31 1.29 172.42 1.26L172.42 1.26L172.43 1.26L172.43 1.26Q172.44 1.25 172.44 1.26L172.44 1.26L172.44 1.26Q172.44 1.25 172.46 1.25L172.46 1.25L172.46 1.25Q172.50 1.25 172.54 1.26L172.54 1.26L172.54 1.26Q172.55 1.26 172.57 1.26L172.57 1.26L172.57 1.26Q172.61 1.26 172.61 1.26L172.61 1.26L172.61 1.26Q172.70 1.28 172.80 1.31L172.80 1.31L172.80 1.31Q172.81 1.31 172.81 1.31L172.81 1.31L172.81 1.31Q172.81 1.31 172.81 1.31L172.81 1.31L172.81 1.31Q172.84 1.33 172.89 1.35L172.89 1.35L172.89 1.35Q172.94 1.37 173.02 1.43L173.02 1.43L173.02 1.43Q173.15 1.51 173.28 1.65L173.28 1.65L173.28 1.65Q173.48 1.85 173.64 2.23L173.64 2.23L173.64 2.23Q174.23 3.66 173.70 6.11L173.70 6.11L173.70 6.11Q173.35 7.70 172.64 8.97L172.64 8.97L172.64 8.97Q172.29 9.60 171.88 10.03L171.88 10.03L171.88 10.03Q171.71 10.22 171.49 10.39L171.49 10.39L171.49 10.39Q172.58 5.68 173.04 1.78L173.04 1.78L173.04 1.78Q173.05 1.71 172.83 1.70L172.83 1.70L172.83 1.70Q172.61 1.69 172.34 1.74L172.34 1.74L172.34 1.74Q171.62 1.87 171.58 2.17L171.58 2.17L171.58 2.17Q171.11 6.19 169.93 11.16L169.93 11.16L169.93 11.16Q169.87 11.42 170.52 11.30L170.52 11.30L170.52 11.30Q170.82 11.25 171.07 11.12L171.07 11.12L171.07 11.12Q171.27 11.03 171.33 10.97L171.33 10.97L171.33 10.97Q171.60 10.93 171.98 10.77L171.98 10.77L171.98 10.77Q173.54 10.12 174.53 7.78L174.53 7.78L174.53 7.78Q175.44 5.63 175.40 3.48L175.40 3.48ZM185.87 5.31L185.87 5.31Q185.72 6.24 184.82 7.18L184.82 7.18L184.82 7.18Q184.63 7.38 184.39 7.58L184.39 7.58L184.39 7.58Q184.33 7.63 184.27 7.68L184.27 7.68L184.27 7.68Q184.05 7.59 183.80 7.58L183.80 7.58L183.80 7.58Q184.36 4.74 184.50 2.66L184.50 2.66L184.50 2.66Q184.77 2.80 185.01 2.99L185.01 2.99L185.01 2.99Q185.52 3.39 185.75 4.03L185.75 4.03L185.75 4.03Q185.98 4.65 185.87 5.31L185.87 5.31ZM182.90 2.40L182.90 2.40Q182.90 2.40 182.91 2.39L182.91 2.39L182.91 2.39Q182.90 2.40 182.90 2.40L182.90 2.40ZM187.83 11.42L187.83 11.42Q187.10 10.88 185.57 8.99L185.57 8.99L185.57 8.99Q184.90 8.17 184.78 8.05L184.78 8.05L184.78 8.05Q185.24 7.84 185.67 7.50L185.67 7.50L185.67 7.50Q186.87 6.56 187.23 5.41L187.23 5.41L187.23 5.41Q187.48 4.60 187.27 3.84L187.27 3.84L187.27 3.84Q187.06 3.07 186.44 2.53L186.44 2.53L186.44 2.53Q185.19 1.46 183.12 1.88L183.12 1.88L183.12 1.88Q182.99 1.91 182.79 1.96L182.79 1.96L182.79 1.96Q182.05 2.14 182.12 2.37L182.12 2.37L182.12 2.37Q182.18 2.58 182.89 2.40L182.89 2.40L182.89 2.40Q182.96 2.39 183.00 2.38L183.00 2.38L183.00 2.38Q183.05 2.37 183.08 2.37L183.08 2.37L183.08 2.37Q182.96 5.11 181.73 10.79L181.73 10.79L181.73 10.79Q181.67 11.04 182.31 10.92L182.31 10.92L182.31 10.92Q182.62 10.87 182.87 10.75L182.87 10.75L182.87 10.75Q183.15 10.62 183.17 10.53L183.17 10.53L183.17 10.53Q183.46 9.17 183.56 8.72L183.56 8.72L183.56 8.72Q183.57 8.72 183.57 8.72L183.57 8.72L183.57 8.72Q183.57 8.72 183.57 8.72L183.57 8.72L183.57 8.72Q183.68 8.85 184.37 9.70L184.37 9.70L184.37 9.70Q185.68 11.34 186.45 11.92L186.45 11.92L186.45 11.92Q186.68 12.09 187.39 11.83L187.39 11.83L187.39 11.83Q187.58 11.76 187.72 11.67L187.72 11.67L187.72 11.67Q187.97 11.52 187.83 11.42L187.83 11.42ZM198.93 1.42L198.93 1.42Q198.21 1.19 197.03 1.57L197.03 1.57L197.03 1.57Q195.52 2.06 194.96 3.77L194.96 3.77L194.96 3.77Q194.61 4.83 194.79 6.11L194.79 6.11L194.79 6.11Q194.88 6.76 195.15 7.16L195.15 7.16L195.15 7.16Q194.73 7.38 194.43 7.70L194.43 7.70L194.43 7.70Q193.44 8.80 193.55 10.01L193.55 10.01L193.55 10.01Q193.61 10.70 194.09 11.11L194.09 11.11L194.09 11.11Q194.49 11.44 195.32 11.42L195.32 11.42L195.32 11.42Q196.15 11.39 196.85 10.95L196.85 10.95L196.85 10.95Q197.61 10.49 197.91 9.76L197.91 9.76L197.91 9.76Q197.97 9.61 197.69 9.60L197.69 9.60L197.69 9.60Q197.52 9.59 197.33 9.63L197.33 9.63L197.33 9.63Q196.57 9.76 196.47 10.02L196.47 10.02L196.47 10.02Q196.27 10.51 195.92 10.80L195.92 10.80L195.92 10.80Q195.91 10.81 195.90 10.82L195.90 10.82L195.90 10.82Q195.85 10.81 195.84 10.81L195.84 10.81L195.84 10.81Q195.77 10.79 195.69 10.75L195.69 10.75L195.69 10.75Q195.53 10.68 195.37 10.52L195.37 10.52L195.37 10.52Q195.08 10.23 195.01 9.63L195.01 9.63L195.01 9.63Q194.91 8.83 195.54 7.86L195.54 7.86L195.54 7.86Q195.62 7.74 195.73 7.62L195.73 7.62L195.73 7.62Q195.94 7.70 196.21 7.72L196.21 7.72L196.21 7.72Q196.62 7.74 197.11 7.51L197.11 7.51L197.11 7.51Q197.52 7.32 197.37 7.18L197.37 7.18L197.37 7.18Q197.09 6.90 196.66 6.84L196.66 6.84L196.66 6.84Q196.62 6.79 196.59 6.75L196.59 6.75L196.59 6.75Q196.38 6.45 196.27 5.89L196.27 5.89L196.27 5.89Q196.08 4.89 196.27 4.00L196.27 4.00L196.27 4.00Q196.53 2.70 197.30 2.04L197.30 2.04L197.30 2.04Q197.35 2.00 197.45 1.93L197.45 1.93L197.45 1.93Q197.46 1.93 197.46 1.93L197.46 1.93L197.46 1.93Q197.59 1.94 197.57 1.93L197.57 1.93L197.57 1.93Q198.15 2.02 198.03 2.62L198.03 2.62L198.03 2.62Q197.98 2.86 198.61 2.75L198.61 2.75L198.61 2.75Q198.92 2.69 199.17 2.58L199.17 2.58L199.17 2.58Q199.45 2.45 199.47 2.36L199.47 2.36L199.47 2.36Q199.61 1.63 198.93 1.42L198.93 1.42ZM208.10 7.89L208.10 7.89Q208.00 7.90 207.09 7.84L207.09 7.84L207.09 7.84Q207.50 6.63 207.96 5.57L207.96 5.57L207.96 5.57Q208.13 5.18 208.67 3.95L208.67 3.95L208.67 3.95Q208.65 4.61 208.47 7.85L208.47 7.85L208.47 7.85Q208.30 7.87 208.10 7.89L208.10 7.89ZM209.91 1.18L209.91 1.18Q209.73 1.09 209.34 1.16L209.34 1.16L209.34 1.16Q208.70 1.27 208.49 1.55L208.49 1.55L208.49 1.55Q208.29 1.80 207.51 3.58L207.51 3.58L207.51 3.58Q207.38 3.90 207.01 4.70L207.01 4.70L207.01 4.70Q206.70 5.42 206.52 5.83L206.52 5.83L206.52 5.83Q206.10 6.79 205.73 7.86L205.73 7.86L205.73 7.86Q204.80 7.97 204.16 8.37L204.16 8.37L204.16 8.37Q203.98 8.48 204.00 8.58L204.00 8.58L204.00 8.58Q204.03 8.67 204.24 8.68L204.24 8.68L204.24 8.68Q204.76 8.70 205.23 8.43L205.23 8.43L205.23 8.43Q205.37 8.41 205.42 8.41L205.42 8.41L205.42 8.41Q205.48 8.41 205.54 8.41L205.54 8.41L205.54 8.41Q205.22 9.39 204.90 10.53L204.90 10.53L204.90 10.53Q204.83 10.79 205.49 10.67L205.49 10.67L205.49 10.67Q205.79 10.62 206.04 10.49L206.04 10.49L206.04 10.49Q206.32 10.37 206.34 10.27L206.34 10.27L206.34 10.27Q206.61 9.32 206.88 8.48L206.88 8.48L206.88 8.48Q207.18 8.50 207.38 8.47L207.38 8.47L207.38 8.47Q208.08 8.39 208.43 8.46L208.43 8.46L208.43 8.46Q208.33 10.55 208.33 12.02L208.33 12.02L208.33 12.02Q208.33 12.10 208.55 12.11L208.55 12.11L208.55 12.11Q208.77 12.12 209.06 12.06L209.06 12.06L209.06 12.06Q209.79 11.91 209.79 11.62L209.79 11.62L209.79 11.62Q209.79 9.90 209.99 6.45L209.99 6.45L209.99 6.45Q210.19 3.00 210.19 1.27L210.19 1.27L210.19 1.27Q210.19 1.18 209.91 1.18L209.91 1.18ZM224.69 2.21L224.69 2.21Q224.65 2.05 224.10 2.15L224.10 2.15L224.10 2.15Q223.40 2.28 223.23 2.54L223.23 2.54L223.23 2.54Q222.36 4.03 221.42 6.51L221.42 6.51L221.42 6.41L221.42 6.41Q221.42 5.55 221.26 2.12L221.26 2.12L221.26 2.12Q221.25 2.03 221.02 2.02L221.02 2.02L221.02 2.02Q220.88 1.92 220.46 2.00L220.46 2.00L220.46 2.00Q219.75 2.13 219.60 2.39L219.60 2.39L219.60 2.39Q217.47 6.30 216.86 11.14L216.86 11.14L216.86 11.14Q216.85 11.27 217.23 11.23L217.23 11.23L217.23 11.23Q217.48 11.21 217.66 11.16L217.66 11.16L217.66 11.16Q218.30 10.99 218.33 10.75L218.33 10.75L218.33 10.75Q218.73 7.51 219.90 4.58L219.90 4.58L219.90 4.58Q219.95 5.81 219.96 6.71L219.96 6.71L219.96 6.71Q219.97 8.26 219.88 8.86L219.88 8.86L219.88 8.86Q219.70 10.15 219.69 10.99L219.69 10.99L219.69 10.99Q219.69 11.20 220.38 11.03L220.38 11.03L220.38 11.03Q221.05 10.86 221.14 10.66L221.14 10.66L221.14 10.66Q221.62 9.61 222.34 7.67L222.34 7.67L222.34 7.67Q223.13 5.54 223.49 4.66L223.49 4.66L223.49 4.66Q223.54 5.91 223.30 7.85L223.30 7.85L223.30 7.85Q222.96 10.57 222.93 11.04L222.93 11.04L222.93 11.04Q222.92 11.12 223.14 11.12L223.14 11.12L223.14 11.12Q223.36 11.13 223.64 11.08L223.64 11.08L223.64 11.08Q224.36 10.94 224.39 10.65L224.39 10.65L224.39 10.65Q224.44 9.88 224.62 8.54L224.62 8.54L224.62 8.54Q224.81 7.03 224.88 6.43L224.88 6.43L224.88 6.43Q225.11 3.95 224.69 2.21L224.69 2.21ZM237.16 5.50L237.16 5.50Q237.61 4.74 237.82 3.53L237.82 3.53L237.82 3.53Q238.05 2.15 237.56 1.57L237.56 1.57L237.56 1.57Q237.27 1.22 236.52 1.27L236.52 1.27L236.52 1.27Q235.58 1.33 234.68 1.85L234.68 1.85L234.68 1.85Q233.43 2.59 232.83 4.34L232.83 4.34L232.83 4.34Q232.21 6.10 232.83 7.18L232.83 7.18L232.83 7.18Q233.12 7.68 234.49 8.17L234.49 8.17L234.49 8.17Q235.06 8.37 235.27 8.48L235.27 8.48L235.27 8.48Q235.70 8.74 235.79 9.11L235.79 9.11L235.79 9.11Q235.89 9.50 235.55 10.17L235.55 10.17L235.55 10.17Q235.37 10.51 235.09 10.76L235.09 10.76L235.09 10.76Q234.97 10.87 234.81 10.97L234.81 10.97L234.81 10.97Q234.74 11.02 234.72 11.03L234.72 11.03L234.72 11.03Q234.66 11.07 234.60 11.09L234.60 11.09L234.60 11.09Q234.69 11.05 234.57 11.10L234.57 11.10L234.57 11.10Q234.58 11.10 234.64 11.09L234.64 11.09L234.64 11.09Q234.60 11.09 234.55 11.09L234.55 11.09L234.55 11.09Q234.54 11.10 234.45 11.09L234.45 11.09L234.45 11.09Q234.40 11.09 234.25 11.05L234.25 11.05L234.25 11.05Q233.89 10.97 233.59 10.64L233.59 10.64L233.59 10.64Q233.37 10.39 233.28 9.93L233.28 9.93L233.28 9.93Q233.18 9.44 233.41 9.28L233.41 9.28L233.41 9.28Q233.60 9.13 233.58 9.06L233.58 9.06L233.58 9.06Q233.56 8.97 233.32 8.96L233.32 8.96L233.32 8.96Q232.70 8.95 232.29 9.24L232.29 9.24L232.29 9.24Q231.90 9.53 231.83 9.86L231.83 9.86L231.83 9.86Q231.75 10.20 231.90 10.62L231.90 10.62L231.90 10.62Q232.18 11.36 233.04 11.61L233.04 11.61L233.04 11.61Q233.93 11.87 235.20 11.37L235.20 11.37L235.20 11.37Q236.22 10.96 236.78 10.24L236.78 10.24L236.78 10.24Q237.16 9.76 237.25 9.24L237.25 9.24L237.25 9.24Q237.35 8.62 236.97 8.23L236.97 8.23L236.97 8.23Q236.70 7.96 236.14 7.75L236.14 7.75L236.14 7.75Q235.99 7.70 235.68 7.59L235.68 7.59L235.68 7.59Q235.38 7.50 235.25 7.44L235.25 7.44L235.25 7.44Q234.72 7.23 234.44 6.97L234.44 6.97L234.44 6.97Q234.14 6.69 234.04 5.96L234.04 5.96L234.04 5.96Q233.84 4.53 234.79 2.97L234.79 2.97L234.79 2.97Q235.20 2.29 235.71 1.95L235.71 1.95L235.71 1.95Q235.76 1.91 235.85 1.86L235.85 1.86L235.85 1.86Q235.85 1.86 235.90 1.84L235.90 1.84L235.90 1.84Q235.89 1.84 235.93 1.83L235.93 1.83L235.93 1.83Q235.90 1.84 235.94 1.83L235.94 1.83L235.94 1.83Q235.87 1.85 235.79 1.85L235.79 1.85L235.79 1.85Q235.81 1.85 235.80 1.85L235.80 1.85L235.82 1.85L235.82 1.85Q235.87 1.86 235.96 1.89L235.96 1.89L235.96 1.89Q235.97 1.89 236.07 1.96L236.07 1.96L236.07 1.96Q236.13 2.01 236.17 2.06L236.17 2.06L236.17 2.06Q236.29 2.20 236.36 2.45L236.36 2.45L236.36 2.45Q236.48 2.84 236.41 3.49L236.41 3.49L236.41 3.49Q236.29 4.81 235.72 5.76L235.72 5.76L235.72 5.76Q235.63 5.90 235.94 5.91L235.94 5.91L235.94 5.91Q236.13 5.92 236.30 5.89L236.30 5.89L236.30 5.89Q237.00 5.76 237.16 5.50L237.16 5.50ZM257.54 9.37L257.54 9.37Q257.44 9.50 257.19 9.70L257.19 9.70L257.19 9.70Q257.15 9.73 257.04 9.80L257.04 9.80L257.04 9.80Q256.99 9.84 256.94 9.87L256.94 9.87L256.94 9.87Q256.83 9.94 256.83 9.93L256.83 9.93L256.83 9.93Q256.74 9.97 256.63 10.03L256.63 10.03L256.63 10.03Q256.61 10.04 256.55 10.06L256.55 10.06L256.55 10.06Q256.54 10.07 256.44 10.11L256.44 10.11L256.44 10.11Q256.42 10.11 256.35 10.14L256.35 10.14L256.35 10.14Q256.27 10.16 256.27 10.17L256.27 10.17L256.27 10.17Q256.18 10.19 256.07 10.21L256.07 10.21L256.07 10.21Q256.05 10.23 255.90 10.25L255.90 10.25L255.90 10.25Q255.90 10.25 255.85 10.26L255.85 10.26L255.85 10.26Q255.88 10.26 255.73 10.27L255.73 10.27L255.73 10.27Q255.66 10.28 255.53 10.29L255.53 10.29L255.53 10.29Q255.56 10.29 255.38 10.29L255.38 10.29L255.38 10.29Q255.46 10.03 255.82 8.24L255.82 8.24L255.82 8.24Q256.14 8.20 256.42 8.05L256.42 8.05L256.42 8.05Q256.54 7.99 256.68 7.93L256.68 7.93L256.68 7.93Q256.69 7.92 256.70 7.92L256.70 7.92L256.70 7.92Q256.70 7.92 256.70 7.92L256.70 7.92L256.70 7.92Q256.79 7.88 256.91 7.84L256.91 7.84L256.91 7.84Q256.92 7.84 256.92 7.83L256.92 7.83L256.93 7.83L256.93 7.83Q256.95 7.83 257.01 7.81L257.01 7.81L257.01 7.81Q257.09 7.79 257.09 7.79L257.09 7.79L257.09 7.79Q257.13 7.79 257.17 7.78L257.17 7.78L257.17 7.78Q257.22 7.77 257.26 7.77L257.26 7.77L257.26 7.77Q257.26 7.77 257.26 7.77L257.26 7.77L257.26 7.77Q257.28 7.77 257.31 7.77L257.31 7.77L257.31 7.77Q257.35 7.77 257.36 7.77L257.36 7.77L257.36 7.77Q257.37 7.77 257.41 7.78L257.41 7.78L257.41 7.78Q257.54 7.81 257.65 7.88L257.65 7.88L257.65 7.88Q257.87 8.03 257.87 8.46L257.87 8.46L257.87 8.46Q257.87 8.93 257.54 9.37L257.54 9.37ZM257.16 6.15L257.16 6.15Q256.67 6.95 255.98 7.54L255.98 7.54L255.98 7.54Q256.12 6.95 256.39 6.02L256.39 6.02L256.39 6.02Q257.12 3.45 257.30 2.44L257.30 2.44L257.30 2.44Q257.82 2.95 257.89 3.83L257.89 3.83L257.89 3.83Q257.96 4.83 257.16 6.15L257.16 6.15ZM257.48 7.25L257.48 7.25Q258.09 6.67 258.56 5.95L258.56 5.95L258.56 5.95Q259.46 4.56 259.33 3.30L259.33 3.30L259.33 3.30Q259.22 2.15 258.21 1.62L258.21 1.62L258.21 1.62Q257.19 1.08 255.59 1.55L255.59 1.55L255.59 1.55Q254.86 1.76 254.91 1.96L254.91 1.96L254.91 1.96Q254.98 2.20 255.71 1.99L255.71 1.99L255.71 1.99Q255.88 1.93 255.83 1.95L255.83 1.95L255.83 1.95Q255.90 1.94 255.90 1.93L255.90 1.93L255.90 1.93Q255.92 1.93 255.93 1.93L255.93 1.93L255.93 1.93Q255.97 1.93 256.00 1.93L256.00 1.93L256.00 1.93Q255.98 1.97 255.97 2.02L255.97 2.02L255.97 2.02Q255.82 3.23 254.95 6.28L254.95 6.28L254.95 6.28Q254.60 7.50 254.41 8.38L254.41 8.38L254.41 8.38Q253.91 10.71 253.92 10.66L253.92 10.66L253.92 10.66Q253.87 10.84 254.22 10.83L254.22 10.83L254.22 10.83Q254.28 10.87 254.41 10.88L254.41 10.88L254.41 10.88Q255.95 10.93 257.58 10.16L257.58 10.16L257.58 10.16Q259.19 9.39 259.33 8.16L259.33 8.16L259.33 8.16Q259.46 6.88 257.48 7.25L257.48 7.25ZM271.14 1.42L271.14 1.42Q270.43 1.19 269.25 1.57L269.25 1.57L269.25 1.57Q267.74 2.06 267.18 3.77L267.18 3.77L267.18 3.77Q266.83 4.83 267.00 6.11L267.00 6.11L267.00 6.11Q267.09 6.76 267.36 7.16L267.36 7.16L267.36 7.16Q266.94 7.38 266.65 7.70L266.65 7.70L266.65 7.70Q265.65 8.80 265.76 10.01L265.76 10.01L265.76 10.01Q265.83 10.70 266.31 11.11L266.31 11.11L266.31 11.11Q266.70 11.44 267.53 11.42L267.53 11.42L267.53 11.42Q268.37 11.39 269.07 10.95L269.07 10.95L269.07 10.95Q269.82 10.49 270.12 9.76L270.12 9.76L270.12 9.76Q270.18 9.61 269.90 9.60L269.90 9.60L269.90 9.60Q269.73 9.59 269.54 9.63L269.54 9.63L269.54 9.63Q268.79 9.76 268.69 10.02L268.69 10.02L268.69 10.02Q268.49 10.51 268.14 10.80L268.14 10.80L268.14 10.80Q268.13 10.81 268.11 10.82L268.11 10.82L268.11 10.82Q268.06 10.81 268.06 10.81L268.06 10.81L268.06 10.81Q267.99 10.79 267.91 10.75L267.91 10.75L267.91 10.75Q267.74 10.68 267.59 10.52L267.59 10.52L267.59 10.52Q267.30 10.23 267.22 9.63L267.22 9.63L267.22 9.63Q267.13 8.83 267.76 7.86L267.76 7.86L267.76 7.86Q267.84 7.74 267.94 7.62L267.94 7.62L267.94 7.62Q268.15 7.70 268.43 7.72L268.43 7.72L268.43 7.72Q268.83 7.74 269.32 7.51L269.32 7.51L269.32 7.51Q269.74 7.32 269.59 7.18L269.59 7.18L269.59 7.18Q269.30 6.90 268.88 6.84L268.88 6.84L268.88 6.84Q268.84 6.79 268.80 6.75L268.80 6.75L268.80 6.75Q268.60 6.45 268.49 5.89L268.49 5.89L268.49 5.89Q268.30 4.89 268.48 4.00L268.48 4.00L268.48 4.00Q268.75 2.70 269.51 2.04L269.51 2.04L269.51 2.04Q269.57 2.00 269.66 1.93L269.66 1.93L269.66 1.93Q269.67 1.93 269.67 1.93L269.67 1.93L269.67 1.93Q269.80 1.94 269.78 1.93L269.78 1.93L269.78 1.93Q270.36 2.02 270.25 2.62L270.25 2.62L270.25 2.62Q270.20 2.86 270.83 2.75L270.83 2.75L270.83 2.75Q271.13 2.69 271.39 2.58L271.39 2.58L271.39 2.58Q271.67 2.45 271.69 2.36L271.69 2.36L271.69 2.36Q271.82 1.63 271.14 1.42L271.14 1.42ZM292.33 3.48L292.33 3.48Q292.28 1.70 291.44 1.01L291.44 1.01L291.44 1.01Q290.97 0.64 290.08 0.68L290.08 0.68L290.08 0.68Q289.08 0.72 287.83 1.40L287.83 1.40L287.83 1.40Q287.64 1.50 287.68 1.60L287.68 1.60L287.68 1.60Q287.71 1.70 287.91 1.71L287.91 1.71L287.91 1.71Q288.41 1.72 288.94 1.44L288.94 1.44L288.94 1.44Q288.96 1.43 288.98 1.42L288.98 1.42L288.98 1.42Q289.02 1.39 289.10 1.35L289.10 1.35L289.10 1.35Q289.14 1.34 289.21 1.31L289.21 1.31L289.21 1.31Q289.24 1.29 289.35 1.26L289.35 1.26L289.36 1.26L289.36 1.26Q289.37 1.25 289.37 1.26L289.37 1.26L289.37 1.26Q289.37 1.25 289.39 1.25L289.39 1.25L289.39 1.25Q289.43 1.25 289.47 1.26L289.47 1.26L289.47 1.26Q289.47 1.26 289.50 1.26L289.50 1.26L289.50 1.26Q289.54 1.26 289.54 1.26L289.54 1.26L289.54 1.26Q289.63 1.28 289.73 1.31L289.73 1.31L289.73 1.31Q289.73 1.31 289.73 1.31L289.73 1.31L289.73 1.31Q289.73 1.31 289.74 1.31L289.74 1.31L289.74 1.31Q289.77 1.33 289.82 1.35L289.82 1.35L289.82 1.35Q289.87 1.37 289.95 1.43L289.95 1.43L289.95 1.43Q290.08 1.51 290.21 1.65L290.21 1.65L290.21 1.65Q290.41 1.85 290.57 2.23L290.57 2.23L290.57 2.23Q291.16 3.66 290.63 6.11L290.63 6.11L290.63 6.11Q290.28 7.70 289.57 8.97L289.57 8.97L289.57 8.97Q289.21 9.60 288.81 10.03L288.81 10.03L288.81 10.03Q288.63 10.22 288.42 10.39L288.42 10.39L288.42 10.39Q289.51 5.68 289.97 1.78L289.97 1.78L289.97 1.78Q289.98 1.71 289.76 1.70L289.76 1.70L289.76 1.70Q289.54 1.69 289.27 1.74L289.27 1.74L289.27 1.74Q288.54 1.87 288.51 2.17L288.51 2.17L288.51 2.17Q288.04 6.19 286.86 11.16L286.86 11.16L286.86 11.16Q286.80 11.42 287.44 11.30L287.44 11.30L287.44 11.30Q287.75 11.25 288.00 11.12L288.00 11.12L288.00 11.12Q288.20 11.03 288.26 10.97L288.26 10.97L288.26 10.97Q288.52 10.93 288.91 10.77L288.91 10.77L288.91 10.77Q290.47 10.12 291.46 7.78L291.46 7.78L291.46 7.78Q292.37 5.63 292.33 3.48L292.33 3.48ZM302.80 5.31L302.80 5.31Q302.65 6.24 301.75 7.18L301.75 7.18L301.75 7.18Q301.56 7.38 301.32 7.58L301.32 7.58L301.32 7.58Q301.26 7.63 301.20 7.68L301.20 7.68L301.20 7.68Q300.98 7.59 300.73 7.58L300.73 7.58L300.73 7.58Q301.29 4.74 301.43 2.66L301.43 2.66L301.43 2.66Q301.70 2.80 301.94 2.99L301.94 2.99L301.94 2.99Q302.45 3.39 302.68 4.03L302.68 4.03L302.68 4.03Q302.91 4.65 302.80 5.31L302.80 5.31ZM299.82 2.40L299.82 2.40Q299.82 2.40 299.84 2.39L299.84 2.39L299.84 2.39Q299.83 2.40 299.82 2.40L299.82 2.40ZM304.76 11.42L304.76 11.42Q304.03 10.88 302.50 8.99L302.50 8.99L302.50 8.99Q301.83 8.17 301.71 8.05L301.71 8.05L301.71 8.05Q302.17 7.84 302.60 7.50L302.60 7.50L302.60 7.50Q303.80 6.56 304.16 5.41L304.16 5.41L304.16 5.41Q304.40 4.60 304.20 3.84L304.20 3.84L304.20 3.84Q303.99 3.07 303.37 2.53L303.37 2.53L303.37 2.53Q302.12 1.46 300.05 1.88L300.05 1.88L300.05 1.88Q299.92 1.91 299.72 1.96L299.72 1.96L299.72 1.96Q298.98 2.14 299.04 2.37L299.04 2.37L299.04 2.37Q299.11 2.58 299.82 2.40L299.82 2.40L299.82 2.40Q299.89 2.39 299.93 2.38L299.93 2.38L299.93 2.38Q299.97 2.37 300.01 2.37L300.01 2.37L300.01 2.37Q299.89 5.11 298.66 10.79L298.66 10.79L298.66 10.79Q298.60 11.04 299.24 10.92L299.24 10.92L299.24 10.92Q299.54 10.87 299.80 10.75L299.80 10.75L299.80 10.75Q300.08 10.62 300.10 10.53L300.10 10.53L300.10 10.53Q300.39 9.17 300.49 8.72L300.49 8.72L300.49 8.72Q300.49 8.72 300.49 8.72L300.49 8.72L300.49 8.72Q300.50 8.72 300.50 8.72L300.50 8.72L300.50 8.72Q300.61 8.85 301.29 9.70L301.29 9.70L301.29 9.70Q302.61 11.34 303.38 11.92L303.38 11.92L303.38 11.92Q303.60 12.09 304.32 11.83L304.32 11.83L304.32 11.83Q304.51 11.76 304.65 11.67L304.65 11.67L304.65 11.67Q304.90 11.52 304.76 11.42L304.76 11.42ZM315.85 1.42L315.85 1.42Q315.14 1.19 313.96 1.57L313.96 1.57L313.96 1.57Q312.45 2.06 311.89 3.77L311.89 3.77L311.89 3.77Q311.54 4.83 311.72 6.11L311.72 6.11L311.72 6.11Q311.81 6.76 312.07 7.16L312.07 7.16L312.07 7.16Q311.66 7.38 311.36 7.70L311.36 7.70L311.36 7.70Q310.37 8.80 310.47 10.01L310.47 10.01L310.47 10.01Q310.54 10.70 311.02 11.11L311.02 11.11L311.02 11.11Q311.42 11.44 312.25 11.42L312.25 11.42L312.25 11.42Q313.08 11.39 313.78 10.95L313.78 10.95L313.78 10.95Q314.54 10.49 314.84 9.76L314.84 9.76L314.84 9.76Q314.90 9.61 314.62 9.60L314.62 9.60L314.62 9.60Q314.45 9.59 314.25 9.63L314.25 9.63L314.25 9.63Q313.50 9.76 313.40 10.02L313.40 10.02L313.40 10.02Q313.20 10.51 312.85 10.80L312.85 10.80L312.85 10.80Q312.84 10.81 312.83 10.82L312.83 10.82L312.83 10.82Q312.78 10.81 312.77 10.81L312.77 10.81L312.77 10.81Q312.70 10.79 312.62 10.75L312.62 10.75L312.62 10.75Q312.46 10.68 312.30 10.52L312.30 10.52L312.30 10.52Q312.01 10.23 311.94 9.63L311.94 9.63L311.94 9.63Q311.84 8.83 312.47 7.86L312.47 7.86L312.47 7.86Q312.55 7.74 312.66 7.62L312.66 7.62L312.66 7.62Q312.87 7.70 313.14 7.72L313.14 7.72L313.14 7.72Q313.54 7.74 314.04 7.51L314.04 7.51L314.04 7.51Q314.45 7.32 314.30 7.18L314.30 7.18L314.30 7.18Q314.02 6.90 313.59 6.84L313.59 6.84L313.59 6.84Q313.55 6.79 313.52 6.75L313.52 6.75L313.52 6.75Q313.31 6.45 313.20 5.89L313.20 5.89L313.20 5.89Q313.01 4.89 313.20 4.00L313.20 4.00L313.20 4.00Q313.46 2.70 314.23 2.04L314.23 2.04L314.23 2.04Q314.28 2.00 314.38 1.93L314.38 1.93L314.38 1.93Q314.38 1.93 314.38 1.93L314.38 1.93L314.38 1.93Q314.51 1.94 314.49 1.93L314.49 1.93L314.49 1.93Q315.08 2.02 314.96 2.62L314.96 2.62L314.96 2.62Q314.91 2.86 315.54 2.75L315.54 2.75L315.54 2.75Q315.85 2.69 316.10 2.58L316.10 2.58L316.10 2.58Q316.38 2.45 316.40 2.36L316.40 2.36L316.40 2.36Q316.54 1.63 315.85 1.42L315.85 1.42ZM325.03 7.89L325.03 7.89Q324.93 7.90 324.02 7.84L324.02 7.84L324.02 7.84Q324.43 6.63 324.89 5.57L324.89 5.57L324.89 5.57Q325.06 5.18 325.60 3.95L325.60 3.95L325.60 3.95Q325.58 4.61 325.40 7.85L325.40 7.85L325.40 7.85Q325.23 7.87 325.03 7.89L325.03 7.89ZM326.84 1.18L326.84 1.18Q326.66 1.09 326.27 1.16L326.27 1.16L326.27 1.16Q325.63 1.27 325.42 1.55L325.42 1.55L325.42 1.55Q325.22 1.80 324.44 3.58L324.44 3.58L324.44 3.58Q324.30 3.90 323.94 4.70L323.94 4.70L323.94 4.70Q323.63 5.42 323.45 5.83L323.45 5.83L323.45 5.83Q323.03 6.79 322.66 7.86L322.66 7.86L322.66 7.86Q321.73 7.97 321.08 8.37L321.08 8.37L321.08 8.37Q320.91 8.48 320.93 8.58L320.93 8.58L320.93 8.58Q320.96 8.67 321.17 8.68L321.17 8.68L321.17 8.68Q321.69 8.70 322.16 8.43L322.16 8.43L322.16 8.43Q322.30 8.41 322.35 8.41L322.35 8.41L322.35 8.41Q322.41 8.41 322.47 8.41L322.47 8.41L322.47 8.41Q322.15 9.39 321.83 10.53L321.83 10.53L321.83 10.53Q321.76 10.79 322.42 10.67L322.42 10.67L322.42 10.67Q322.72 10.62 322.97 10.49L322.97 10.49L322.97 10.49Q323.24 10.37 323.27 10.27L323.27 10.27L323.27 10.27Q323.54 9.32 323.81 8.48L323.81 8.48L323.81 8.48Q324.11 8.50 324.30 8.47L324.30 8.47L324.30 8.47Q325.01 8.39 325.36 8.46L325.36 8.46L325.36 8.46Q325.25 10.55 325.25 12.02L325.25 12.02L325.25 12.02Q325.25 12.10 325.48 12.11L325.48 12.11L325.48 12.11Q325.70 12.12 325.99 12.06L325.99 12.06L325.99 12.06Q326.72 11.91 326.72 11.62L326.72 11.62L326.72 11.62Q326.72 9.90 326.92 6.45L326.92 6.45L326.92 6.45Q327.12 3.00 327.12 1.27L327.12 1.27L327.12 1.27Q327.12 1.18 326.84 1.18L326.84 1.18ZM341.62 2.21L341.62 2.21Q341.58 2.05 341.02 2.15L341.02 2.15L341.02 2.15Q340.33 2.28 340.16 2.54L340.16 2.54L340.16 2.54Q339.29 4.03 338.35 6.51L338.35 6.51L338.35 6.41L338.35 6.41Q338.35 5.55 338.19 2.12L338.19 2.12L338.19 2.12Q338.18 2.03 337.95 2.02L337.95 2.02L337.95 2.02Q337.80 1.92 337.39 2.00L337.39 2.00L337.39 2.00Q336.68 2.13 336.53 2.39L336.53 2.39L336.53 2.39Q334.40 6.30 333.79 11.14L333.79 11.14L333.79 11.14Q333.78 11.27 334.16 11.23L334.16 11.23L334.16 11.23Q334.41 11.21 334.58 11.16L334.58 11.16L334.58 11.16Q335.23 10.99 335.25 10.75L335.25 10.75L335.25 10.75Q335.66 7.51 336.83 4.58L336.83 4.58L336.83 4.58Q336.88 5.81 336.89 6.71L336.89 6.71L336.89 6.71Q336.90 8.26 336.81 8.86L336.81 8.86L336.81 8.86Q336.63 10.15 336.62 10.99L336.62 10.99L336.62 10.99Q336.62 11.20 337.31 11.03L337.31 11.03L337.31 11.03Q337.98 10.86 338.07 10.66L338.07 10.66L338.07 10.66Q338.55 9.61 339.27 7.67L339.27 7.67L339.27 7.67Q340.05 5.54 340.42 4.66L340.42 4.66L340.42 4.66Q340.46 5.91 340.22 7.85L340.22 7.85L340.22 7.85Q339.89 10.57 339.86 11.04L339.86 11.04L339.86 11.04Q339.85 11.12 340.07 11.12L340.07 11.12L340.07 11.12Q340.29 11.13 340.57 11.08L340.57 11.08L340.57 11.08Q341.29 10.94 341.32 10.65L341.32 10.65L341.32 10.65Q341.37 9.88 341.55 8.54L341.55 8.54L341.55 8.54Q341.74 7.03 341.80 6.43L341.80 6.43L341.80 6.43Q342.04 3.95 341.62 2.21L341.62 2.21ZM354.09 5.50L354.09 5.50Q354.54 4.74 354.74 3.53L354.74 3.53L354.74 3.53Q354.98 2.15 354.48 1.57L354.48 1.57L354.48 1.57Q354.20 1.22 353.45 1.27L353.45 1.27L353.45 1.27Q352.51 1.33 351.61 1.85L351.61 1.85L351.61 1.85Q350.36 2.59 349.75 4.34L349.75 4.34L349.75 4.34Q349.14 6.10 349.75 7.18L349.75 7.18L349.75 7.18Q350.05 7.68 351.42 8.17L351.42 8.17L351.42 8.17Q351.99 8.37 352.19 8.48L352.19 8.48L352.19 8.48Q352.63 8.74 352.72 9.11L352.72 9.11L352.72 9.11Q352.82 9.50 352.47 10.17L352.47 10.17L352.47 10.17Q352.30 10.51 352.02 10.76L352.02 10.76L352.02 10.76Q351.90 10.87 351.74 10.97L351.74 10.97L351.74 10.97Q351.67 11.02 351.65 11.03L351.65 11.03L351.65 11.03Q351.59 11.07 351.52 11.09L351.52 11.09L351.52 11.09Q351.62 11.05 351.50 11.10L351.50 11.10L351.50 11.10Q351.50 11.10 351.57 11.09L351.57 11.09L351.57 11.09Q351.52 11.09 351.48 11.09L351.48 11.09L351.48 11.09Q351.47 11.10 351.37 11.09L351.37 11.09L351.37 11.09Q351.33 11.09 351.18 11.05L351.18 11.05L351.18 11.05Q350.82 10.97 350.52 10.64L350.52 10.64L350.52 10.64Q350.30 10.39 350.21 9.93L350.21 9.93L350.21 9.93Q350.11 9.44 350.33 9.28L350.33 9.28L350.33 9.28Q350.53 9.13 350.51 9.06L350.51 9.06L350.51 9.06Q350.49 8.97 350.25 8.96L350.25 8.96L350.25 8.96Q349.63 8.95 349.22 9.24L349.22 9.24L349.22 9.24Q348.83 9.53 348.76 9.86L348.76 9.86L348.76 9.86Q348.67 10.20 348.83 10.62L348.83 10.62L348.83 10.62Q349.10 11.36 349.97 11.61L349.97 11.61L349.97 11.61Q350.86 11.87 352.13 11.37L352.13 11.37L352.13 11.37Q353.14 10.96 353.71 10.24L353.71 10.24L353.71 10.24Q354.09 9.76 354.18 9.24L354.18 9.24L354.18 9.24Q354.28 8.62 353.90 8.23L353.90 8.23L353.90 8.23Q353.63 7.96 353.07 7.75L353.07 7.75L353.07 7.75Q352.92 7.70 352.60 7.59L352.60 7.59L352.60 7.59Q352.31 7.50 352.18 7.44L352.18 7.44L352.18 7.44Q351.65 7.23 351.37 6.97L351.37 6.97L351.37 6.97Q351.07 6.69 350.96 5.96L350.96 5.96L350.96 5.96Q350.77 4.53 351.72 2.97L351.72 2.97L351.72 2.97Q352.13 2.29 352.64 1.95L352.64 1.95L352.64 1.95Q352.69 1.91 352.78 1.86L352.78 1.86L352.78 1.86Q352.78 1.86 352.83 1.84L352.83 1.84L352.83 1.84Q352.82 1.84 352.86 1.83L352.86 1.83L352.86 1.83Q352.83 1.84 352.87 1.83L352.87 1.83L352.87 1.83Q352.80 1.85 352.72 1.85L352.72 1.85L352.72 1.85Q352.74 1.85 352.73 1.85L352.73 1.85L352.75 1.85L352.75 1.85Q352.80 1.86 352.88 1.89L352.88 1.89L352.88 1.89Q352.90 1.89 352.99 1.96L352.99 1.96L352.99 1.96Q353.06 2.01 353.10 2.06L353.10 2.06L353.10 2.06Q353.22 2.20 353.29 2.45L353.29 2.45L353.29 2.45Q353.40 2.84 353.34 3.49L353.34 3.49L353.34 3.49Q353.22 4.81 352.65 5.76L352.65 5.76L352.65 5.76Q352.56 5.90 352.86 5.91L352.86 5.91L352.86 5.91Q353.06 5.92 353.23 5.89L353.23 5.89L353.23 5.89Q353.92 5.76 354.09 5.50L354.09 5.50Z"></path></g></svg>